<?xml version="1.0" standalone="no"?>
<!DOCTYPE svg PUBLIC "-//W3C//DTD SVG 20010904//EN"
 "http://www.w3.org/TR/2001/REC-SVG-20010904/DTD/svg10.dtd">
<svg version="1.0" xmlns="http://www.w3.org/2000/svg"
 width="360.000000pt" height="190.000000pt" viewBox="0 0 360.000000 190.000000"
 preserveAspectRatio="xMidYMid meet">

<g transform="translate(0.000000,190.000000) scale(0.100000,-0.100000)"
fill="#000000" stroke="none">
<path d="M672 1218 l3 -683 36 -75 c50 -106 140 -219 274 -349 l116 -111 695
0 696 0 120 118 c139 135 221 240 275 349 l38 77 3 678 3 678 -105 0 -105 0
-4 -617 c-3 -553 -6 -625 -22 -688 -24 -97 -54 -158 -114 -240 -55 -75 -211
-253 -223 -254 -5 -1 -9 307 -10 683 l-3 683 -192 -156 -193 -156 0 -297 0
-298 -175 0 -175 0 0 293 -1 292 -182 164 -182 165 -3 -687 c-1 -378 -6 -687
-11 -687 -14 0 -175 172 -226 241 -62 84 -92 144 -118 237 -20 74 -21 100 -25
700 l-3 622 -95 0 -95 0 3 -682z"/>
<path d="M1500 1799 c58 -56 148 -140 200 -189 l95 -88 195 189 195 188 -395
0 -395 0 105 -100z"/>
</g>
</svg>
